<?xml version="1.0" encoding="UTF-8"?>
<svg id="_レイヤー_2" data-name="レイヤー 2" xmlns="http://www.w3.org/2000/svg" viewBox="0 0 513.47 513.47">
  <defs>
    <style>
      .cls-1 {
        fill: #fff;
      }

      .cls-2 {
        fill: #ffc015;
        stroke: #ffc015;
        stroke-miterlimit: 10;
      }
    </style>
  </defs>
  <g id="_レイヤー_2-2" data-name="レイヤー 2">
    <circle class="cls-2" cx="256.74" cy="256.74" r="256.24"/>
  </g>
  <g id="_レイヤー_1-2" data-name="レイヤー 1">
    <g>
      <path class="cls-1" d="M62.51,205.01c0,.92-.15,1.68-.46,2.75-5.19,19.99-8.85,45.77-8.85,66.67,0,15.72,1.83,31.58,4.58,44.55.15.92.3,1.83.3,2.75,0,3.2-1.53,5.34-4.73,5.95-.61.15-1.37.15-1.98.15-3.2,0-5.34-1.98-6.1-5.8-3.05-13.27-4.73-29.6-4.73-47.45,0-21.05,3.66-49.43,9-69.57,1.07-3.81,3.2-5.34,6.26-5.34.61,0,1.22,0,1.98.15,3.05.61,4.73,2.44,4.73,5.19ZM80.66,228.97c5.49.15,11.29.31,17.09.31,8.24,0,16.78-.15,25.17-.76-.15-7.63-.31-15.56-.31-23.34,0-3.97,2.14-5.95,5.8-5.95,3.97,0,6.41,2.14,6.41,5.8v22.73c7.48-.76,15.1-1.53,22.12-2.75.46,0,.92-.15,1.22-.15,3.05,0,5.03,1.98,5.34,4.88,0,.46.15.92.15,1.37,0,3.2-1.68,5.03-4.58,5.65-7.02,1.37-15.1,2.29-23.95,3.05.15,9,.31,17.24.92,24.87.46,5.8,1.22,13.58,1.68,20.14,9.15,4.27,19.83,11.9,26.55,18.92,1.37,1.37,1.98,3.05,1.98,4.88,0,1.53-.61,3.2-1.83,4.58-1.37,1.37-2.9,1.98-4.58,1.98-1.53,0-3.05-.61-4.42-1.98-5.95-6.56-11.75-11.44-17.55-15.1.15,1.37.15,3.05.15,4.12,0,16.17-10.99,23.8-30.21,23.8s-30.97-9.31-30.97-24.56c0-13.58,11.44-23.5,29.6-23.5,6.87,0,13.27,1.07,18.92,2.75-.46-5.03-.91-11.14-1.22-16.17-.46-7.32-.76-15.26-.92-23.95-8.39.46-17.7.76-26.85.76-5.34,0-10.68-.15-15.87-.31-3.97-.15-5.65-2.59-5.65-6.26s1.98-5.8,5.49-5.8h.3ZM106.45,288.62c-10.83,0-17.85,5.19-17.85,12.97s7.02,12.97,18.16,12.97c14.65,0,19.68-5.19,19.68-17.55,0-1.37-.15-2.44-.3-4.27-6.26-2.75-12.66-4.12-19.68-4.12ZM176.33,202.73c0,9.61-7.63,17.24-17.24,17.24s-17.24-7.63-17.24-17.24,7.63-17.09,17.24-17.09,17.24,7.63,17.24,17.09ZM148.86,202.73c0,5.49,4.73,10.22,10.22,10.22s10.22-4.73,10.22-10.22-4.73-10.07-10.22-10.07-10.22,4.58-10.22,10.07Z"/>
      <path class="cls-1" d="M271.69,257.5c-5.95,1.53-13.73,2.9-22.28,3.81-18.16,2.14-37.38,4.73-55.23,7.48-.46.15-.92.15-1.22.15-3.36,0-5.34-2.44-5.65-5.19-.15-.31-.15-.76-.15-1.07,0-2.75,1.53-4.88,4.73-5.8,5.49-1.53,10.83-3.51,16.63-6.1,23.04-10.53,47.45-25.63,65.45-39.97-19.53,1.98-41.2,3.05-58.74,3.05-3.05,0-5.49-1.98-5.49-5.8s2.14-5.95,5.8-6.1c12.66,0,25.48-.31,36.92-.76,10.83-.46,20.9-1.07,28.68-1.68h1.68c3.66,0,5.8.91,7.48,3.66.76,1.22,1.07,2.59,1.07,3.97,0,2.29-.91,4.58-3.05,6.56-15.1,13.88-34.18,25.78-51.87,34.33-5.19,2.44-11.6,5.03-18.31,7.48l.15.92c7.48-1.98,16.78-3.66,24.72-4.58,20.9-2.59,45.62-5.19,69.88-6.71h.76c3.81,0,5.8,2.29,6.1,5.65v.31c0,3.51-2.29,5.95-5.49,6.1-15.41.92-30.51,3.51-43.48,9.15-14.19,6.1-23.19,14.95-23.19,25.79,0,9.31,7.02,15.41,21.36,17.39,5.49.76,13.27,1.22,21.21,1.22,4.27,0,6.87,1.98,6.87,6.1,0,4.42-2.44,7.02-6.71,7.17h-3.2c-7.17,0-14.34-.46-19.99-1.22-20.6-2.9-32.65-13.27-32.65-28.99,0-14.65,11.6-27.77,37.38-35.4l-.15-.91Z"/>
      <path class="cls-1" d="M369.19,202.42c0,.92-.15,1.68-.46,2.75-5.19,19.99-8.85,45.77-8.85,66.67,0,15.72,1.83,31.58,4.58,44.55.15.91.31,1.83.31,2.59,0,3.36-1.37,5.49-4.73,6.1-.61.15-1.37.15-1.83.15-3.36,0-5.49-2.14-6.26-5.8-3.05-13.27-4.73-29.6-4.73-47.45,0-21.06,3.66-49.43,9-69.57,1.07-3.81,3.2-5.34,6.25-5.34.61,0,1.22,0,1.98.15,3.05.61,4.73,2.44,4.73,5.19ZM463.63,222.41c.46-.15.92-.15,1.37-.15,3.05,0,5.03,1.98,5.19,4.88.15.46.15.91.15,1.37,0,3.2-1.53,5.03-4.58,5.64-7.02,1.37-15.1,2.29-23.95,3.05.15,9,.31,17.24.92,24.87.46,5.8,1.22,13.58,1.68,20.14,9.15,4.27,19.83,11.9,26.55,18.92,1.22,1.22,1.98,3.05,1.98,4.73s-.61,3.36-1.83,4.73c-1.37,1.37-3.05,1.98-4.58,1.98s-3.2-.61-4.42-1.98c-5.95-6.56-11.75-11.44-17.55-15.1.15,1.37.15,3.05.15,4.12,0,16.17-10.99,23.8-30.21,23.8s-30.97-9.31-30.97-24.56c0-13.58,11.44-23.5,29.6-23.5,6.87,0,13.27,1.07,18.92,2.75-.46-5.03-.92-11.14-1.22-16.17-.46-7.32-.76-15.26-.91-23.95-8.39.46-17.7.76-26.85.76-5.34,0-10.68-.15-15.87-.31-3.97-.15-5.65-2.59-5.65-6.25s1.98-5.8,5.49-5.8h.31c5.49.15,11.29.31,17.09.31,8.24,0,16.78-.15,25.17-.76-.15-7.63-.31-15.56-.31-23.34,0-3.97,2.14-5.95,5.8-5.95,3.97,0,6.41,2.14,6.41,5.8v22.73c7.48-.76,15.1-1.53,22.12-2.75ZM413.13,286.03c-10.83,0-17.85,5.19-17.85,12.97s7.02,12.97,18.16,12.97c14.65,0,19.68-5.19,19.68-17.55,0-1.37-.15-2.44-.31-4.27-6.25-2.75-12.66-4.12-19.68-4.12Z"/>
    </g>
  </g>
</svg>