<?xml version="1.0" encoding="UTF-8"?>
<svg id="_レイヤー_1" data-name="レイヤー 1" xmlns="http://www.w3.org/2000/svg" viewBox="0 0 512 512">
  <defs>
    <style>
      .cls-1 {
        fill: #77797c;
      }

      .cls-2 {
        fill: #525358;
      }

      .cls-3 {
        fill: #64656a;
      }

      .cls-4 {
        fill: #37373a;
      }

      .cls-5 {
        fill: #dfe0e1;
      }

      .cls-6 {
        fill: #c7c6c8;
      }

      .cls-7 {
        fill: #d0d1d2;
      }

      .cls-8 {
        fill: #515358;
      }

      .cls-9 {
        fill: #babbbc;
      }

      .cls-10 {
        fill: #fff;
      }

      .cls-11 {
        fill: none;
        stroke: #525358;
        stroke-linecap: round;
        stroke-linejoin: round;
        stroke-width: 9.23px;
      }

      .cls-12 {
        fill: #353537;
      }

      .cls-13 {
        fill: #ffc015;
        stroke: #ffc015;
        stroke-miterlimit: 10;
      }

      .cls-14 {
        fill: #37393c;
      }
    </style>
  </defs>
  <circle class="cls-13" cx="256" cy="256" r="250"/>
  <g id="_生成オブジェクト" data-name="生成オブジェクト">
    <g>
      <path class="cls-14" d="M169.87,168.14l.63-5.07c1.84-14.78,6.17-33.56,13.49-46.3s19.69-20.36,33.69-21.68c22.55-2.14,42.63,12.03,47.07,34.53,1.16,5.9,1.33,11.61.64,17.57,3.88,3.82,3.32,9.23,1.54,13.65-1.13,2.79-3.35,4.25-5.84,5.23-3.91,12.17-11.06,22.99-21.6,29.78-10.99,7.08-24.26,6.89-34.63-1.1-13.51-10.41-20.46-27.38-18.03-43.88,12.97.15,25.25-4.61,33.6-14.23,3.14-3.62,5.36-7.5,5.5-12.1l-4.76,6.21c-8.8,11.47-22.31,17.49-36.6,16.99-.1.74-.89.76-1,.95s-.15.49-.24.99c-3.06,17.02,3.42,34.69,16.69,46.18,10.85,9.39,25.8,10.93,38.53,4.3l2.08,9.4-61.55-.06c-10.36-11.76-11.15-25.71-9.2-41.36Z"/>
      <path class="cls-3" d="M380.51,147.04c4.74,1.23,3.82,16.06-3.69,18.09-3.81,10.93-10.14,20.65-19.26,27.43-11.5,8.54-25.48,9.18-37.36,1.1-9.77-6.64-16.37-16.39-20.44-27.46l-.77-1.78c-.12-.27-1.03.04-1.39-.29-4.13-3.87-5.91-14.56-1.8-16.43,6.24-.07,22.15-3.45,21.17-2.29l-.49.58c-.34.41-3.07-.45-4.48,1.6,17.48-1.58,35.46-3.84,47.72-17.94l12.77,18.7c2.97.22,5.56-1.96,8.01-1.32Z"/>
      <path class="cls-12" d="M380.51,147.04c-2.45-.63-5.04,1.54-8.01,1.32l-12.77-18.7c-12.26,14.1-30.24,16.36-47.72,17.94,1.41-2.05,4.14-1.2,4.48-1.6l.49-.58c.98-1.17-14.93,2.21-21.17,2.29-1.19-5.82-.77-11.71.17-17.31,3.5-20.86,20.83-35.74,42.11-35.63,28.27.15,46.31,24.76,42.41,52.27Z"/>
      <path class="cls-1" d="M265.67,293.96c.34-.03,1.13-.17,1.32-.05,3.54,6.04,8.92,9.92,15.01,13.11,1.71.89,1.73,4.98,1.06,6.21-4.68-.5-9.48-1.2-14.08-2.89-.86-.32-1.05-1.36-1.34-1.82-1.43-2.26-5.04-2.84-7.78-1.69-3.34,1.4-6.74,2.48-9.7,4.63-.51-.88-1.38-2.18-.44-3.77-.85-.17-2.35,0-3.04.84l-3.94-.73c4.99-7.81,14.55-13.13,22.95-13.84Z"/>
      <path class="cls-8" d="M306.42,349.22c1.85.05.94,2.33,2.24,3.41l-3.09,8.47c2.67-.15,5.01-.87,7.56.17.11-.22.33-.4.13-.58.2.19-.02.36-.13.58l-.24.49c-.42.88-1.44,1.96-.57,2.89h.57c-.92,1.75-3.23,2.12-4.73,4.21l-6.15.28-3.99-3.41c-3.12.23-6.38,1.2-9.73.59l-10.59-1.94-.06-.89,19.08-5.66c.1-.12-.82-1.03-.76-1.42.08-.47.61-1.05,1.19-1.52l5.78-4.76c.85-.7,2.71-.94,3.19-.45l.29-.47Z"/>
      <path class="cls-5" d="M272.83,318.77c7.26,1.13,14.53,1.4,22.05.3l3.35.46c1.48-.54,3.46-.95,4.27.71l.42-.43-.42.43c-7.87,8.02-20.31,10.32-29.7,4.05-.15-1.46.21-2.73.44-4.19-.84-.27-.51-.66-.41-1.33Z"/>
      <path class="cls-9" d="M292.53,313.1c.32-.67-.38-.82-.18-1.04l.87-.98c.49-.55-.4-2.63.73-2.96,3.22-.93,6.33-1.81,8.91-3.58,1.47.25,2.39.95,4.3,1.59l.15,1.7c.57,1.15,1.24,1.71,2.13,1.36l-1.71,2.7c-1.15-.26-2.31-.11-3.67.03l-11.53,1.19Z"/>
      <path class="cls-6" d="M104.98,370.62c3.06-1.09,6.17.85,6.89,3.44s-.76,5.6-3.32,6.62-5.46-.54-6.52-2.77c-1.28-2.69.06-6.27,2.94-7.3Z"/>
      <g>
        <path class="cls-4" d="M265.67,293.96c.13-.14.45-.21.67-.65-4.29-8.28-4.22-17.38-.86-25.79,4.97-12.46,15.29-20.82,28.79-20.48l-.14-13.49c-.03-2.46-2.9-4.83-5.81-4.82l-212.67.02c-3.26,0-4.78,3.45-4.78,6.05v121.42s93.63,0,93.63,0c.82.96,1.1,2.4,1.59,3.53-.03,2.74,1.9,5.88.33,5.88l-95.51.02v15.19c-.02,3.79,3.07,5.75,6.58,5.5,1.04-.07,2.24-.03,3.45-.03h97.9s4.39-1.1,4.39-1.1c2.7,3.57,5.6,6.91,8.63,10l-6.5.6-110.44-.14c-7.01,0-13.48-6.77-13.48-13.84l.03-149.15c0-6.82,6.7-13.52,13.59-13.52l180.18-.13c15.53-11.16,35.03-15.59,54.43-16.99,3.07,8.63,9.27,15.69,17.78,18.91,15.99,6.05,33.33-2.45,39.06-19.04,25.16,2.67,50.58,7.54,62.8,31.69,5.58,10.43,8.91,21.32,11.78,32.99,5.24,21.33,8.07,42.69,9.43,64.83h-41.51s-5.51-33.72-5.51-33.72c-.27-1.2-1.09-2.63.04-4.13l-.24-1.11c-.04-.16-.6.01-1.1,0,.06,12.92-.41,25.82-1.87,38.94l-65.28.03c-2.86-15.32-11.85-26.64-27.18-30.32l-5.03,3.47c-2.58,1.78-5.69,2.65-8.91,3.58-1.13.33-.24,2.41-.73,2.96l-.87.98c-.2.22.5.37.18,1.04-3.14.32-6.33.46-9.47.12.68-1.24.65-5.32-1.06-6.21-6.1-3.18-11.48-7.07-15.01-13.11-.18-.12-.98.02-1.32.05Z"/>
        <path class="cls-10" d="M289.52,260.94c11.69-1.15,21.2,8.43,20.5,20.19-.58,9.58-7.18,17.9-16.53,19.93-7.89,1.71-15.6-2.21-19.85-8.94-3.32-5.26-3.81-11.22-2.51-17.91,3.68.22,7.43-.13,11.02-1.66l9.47-4.03-2.1-7.58Z"/>
      </g>
    </g>
    <g>
      <path class="cls-7" d="M294.36,361.8c2.71-.17,5.38-1.69,8.28-1.06.57.26,1.91.88,2.36,1.08.95.26,3.7,1,4.96,1.33-2.54.08-5.16-.41-7.6-1.02-2.63-.53-5.17.96-7.9,1.09-2.51.24-5.17.34-7.67-.12,2.75-.33,5.11-.42,7.59-1.29h0Z"/>
      <path class="cls-2" d="M261.64,311.08c-5.3,2.11-8.9,3.3-12.49,7.57-10.06,11.72-13.72,30.04-18.12,44.65,0,0-3.78-5.83-3.78-5.83l12.01,1.73c1.21.17,6.45.93,7.51,1.08,3.04.72,5.74-1.3,8.99-1.45,6.04-.49,12.98,1.09,18.39.42.72-.29,9.78,1.67,10.71,1.77,0,0,4.5.81,4.5.81,2.61.35,5.35-.5,8.42-.7,0,0,4.73-.36,4.73-.36,8.76-.65,33.98-3.62,32.5,10.7-.53,2.79-1.96,4.77-4.07,6.26-.89.56-1.82,1.13-2.7,1.7-6.6,4.21-12.65,9.28-18.19,14.82-31.65,34.42-89.72,37.92-122.45,3.17-13.21-13.51-20.9-29.1-23.84-47.84,4.33,2.13,8.84-2.8,9.87,2.61,2.09,10.21,5.83,20.07,12.09,28.6,10.11,14.37,24.85,25.7,42.17,29.67,25.7,6.31,54.51-1.39,73.17-20.29,1.64-1.61,3.39-3.4,5.05-4.98,5.93-5.74,12.99-11.03,19.79-15.24-.09.29.15.97.29,1.06-3.22-1.94-10.94-1.65-13.54-1.76-3.23.24-11.09.83-14.19,1.07-3.22.28-6.74,1.2-10.44.63-3.23-.55-10.87-1.99-14.18-2.6,0,0,1.41.05,1.41.05-7.16.88-12.84-.92-19.32-.3-1.42.3-2.51.78-4.28,1.18-1.67.47-4.41.49-6.19.12,0,0-1.5-.22-1.5-.22-3.91-.56-14.01-2.02-18.02-2.59-2.75-.37-4.56-3.18-3.78-5.83,0,0,4.65-16.23,4.65-16.23,3.45-11.41,7.43-22.58,15.43-31.99,2.11-2.37,4.57-4.66,7.63-6.36,2.96-1.64,5.8-2.59,8.19-3.6,2.94-.56,6.02-.82,9.17-.72,1.56.7,3.38,2.98,4.19,4.18,0,.61.02,1.77.03,2.28,0,.58-1.54.09-1.93,1.28-2.65.26-5.33.77-7.88,1.49h0Z"/>
      <polyline class="cls-11" points="302.02 356.27 296.72 357.85 277.65 363.5 275.53 364.13"/>
      <polyline class="cls-11" points="302.02 356.27 306.12 349.69 306.42 349.22 309.31 344.59"/>
      <path class="cls-11" d="M312.89,361.77l.24-.49c.11-.22.33-.4.13-.58,9.78-18.37,15.59-39.76-3.82-51.51l-1.71,2.7c-1.61,2.64-2.64,5.71-4.81,7.92l-.42.43c-7.87,8.02-20.31,10.32-29.7,4.05l-2.39-1.26"/>
    </g>
  </g>
</svg>